<svg width="29" height="28" viewBox="0 0 29 28" fill="none" xmlns="http://www.w3.org/2000/svg">
<path d="M23.8333 10.5H13.3333C12.0447 10.5 11 11.5447 11 12.8333V23.3333C11 24.622 12.0447 25.6667 13.3333 25.6667H23.8333C25.122 25.6667 26.1667 24.622 26.1667 23.3333V12.8333C26.1667 11.5447 25.122 10.5 23.8333 10.5Z" stroke="white" stroke-width="2" stroke-linecap="round" stroke-linejoin="round"/>
<path d="M6.33325 17.5H5.16659C4.54775 17.5 3.95425 17.2542 3.51667 16.8166C3.07908 16.379 2.83325 15.7855 2.83325 15.1667V4.66671C2.83325 4.04787 3.07908 3.45438 3.51667 3.01679C3.95425 2.57921 4.54775 2.33337 5.16659 2.33337H15.6666C16.2854 2.33337 16.8789 2.57921 17.3165 3.01679C17.7541 3.45438 17.9999 4.04787 17.9999 4.66671V5.83337" stroke="white" stroke-width="2" stroke-linecap="round" stroke-linejoin="round"/>
</svg>
