<svg width="24" height="24" viewBox="0 0 24 24" fill="none" xmlns="http://www.w3.org/2000/svg">
<path fill-rule="evenodd" clip-rule="evenodd" d="M11.8749 0.150024C5.32778 0.150024 0.0249023 5.4529 0.0249023 12C0.0249023 17.2437 3.41696 21.6726 8.12734 23.2427C8.71984 23.3464 8.94203 22.9909 8.94203 22.6798C8.94203 22.3984 8.92722 21.4652 8.92722 20.4728C5.9499 21.0208 5.17965 19.747 4.94265 19.0804C4.80934 18.7397 4.23165 17.688 3.72803 17.4066C3.31328 17.1844 2.72078 16.6363 3.71321 16.6215C4.6464 16.6067 5.31296 17.4806 5.53515 17.8361C6.60165 19.6285 8.30509 19.1248 8.98647 18.8138C9.09015 18.0435 9.40121 17.5251 9.7419 17.2288C7.10528 16.9326 4.35015 15.9105 4.35015 11.3779C4.35015 10.0892 4.80934 9.02271 5.56478 8.19321C5.44628 7.89696 5.03153 6.68234 5.68328 5.05296C5.68328 5.05296 6.67571 4.7419 8.94203 6.26759C9.89003 6.00096 10.8973 5.86765 11.9045 5.86765C12.9118 5.86765 13.919 6.00096 14.867 6.26759C17.1333 4.72709 18.1258 5.05296 18.1258 5.05296C18.7775 6.68234 18.3628 7.89696 18.2443 8.19321C18.9997 9.02271 19.4589 10.0744 19.4589 11.3779C19.4589 15.9253 16.689 16.9326 14.0523 17.2288C14.4819 17.5991 14.8522 18.3102 14.8522 19.4211C14.8522 21.006 14.8374 22.2799 14.8374 22.6798C14.8374 22.9909 15.0596 23.3612 15.6521 23.2427C18.0045 22.4486 20.0487 20.9367 21.4969 18.9199C22.945 16.9031 23.7243 14.4829 23.7249 12C23.7249 5.4529 18.422 0.150024 11.8749 0.150024Z" fill="#24292F"/>
</svg>
