<svg width="27" height="26" viewBox="0 0 27 26" fill="none" xmlns="http://www.w3.org/2000/svg">
<path d="M18.7917 2.16669H7.95841C4.96687 2.16669 2.54175 4.59181 2.54175 7.58335V18.4167C2.54175 21.4082 4.96687 23.8334 7.95841 23.8334H18.7917C21.7833 23.8334 24.2084 21.4082 24.2084 18.4167V7.58335C24.2084 4.59181 21.7833 2.16669 18.7917 2.16669Z" stroke="#BC2A8D" stroke-width="2" stroke-linecap="round" stroke-linejoin="round"/>
<path d="M17.7084 12.3175C17.8421 13.2191 17.6881 14.1399 17.2683 14.949C16.8485 15.758 16.1843 16.4141 15.3702 16.8238C14.556 17.2336 13.6334 17.3763 12.7335 17.2314C11.8336 17.0866 11.0023 16.6618 10.3578 16.0173C9.71333 15.3728 9.28847 14.5415 9.14366 13.6416C8.99886 12.7417 9.14149 11.8191 9.55128 11.0049C9.96106 10.1908 10.6171 9.52657 11.4262 9.10678C12.2352 8.68699 13.156 8.53299 14.0576 8.66669C14.9773 8.80306 15.8287 9.23161 16.4861 9.88902C17.1435 10.5464 17.572 11.3979 17.7084 12.3175Z" stroke="#BC2A8D" stroke-width="2" stroke-linecap="round" stroke-linejoin="round"/>
<path d="M19.3333 7.04169H19.3441" stroke="#BC2A8D" stroke-width="2" stroke-linecap="round" stroke-linejoin="round"/>
</svg>
