<svg width="25" height="24" viewBox="0 0 25 24" fill="none" xmlns="http://www.w3.org/2000/svg">
<path d="M22.3812 0.375H2.61875C2.15628 0.375 1.71275 0.558716 1.38573 0.885733C1.05872 1.21275 0.875 1.65628 0.875 2.11875V21.8812C0.875 22.3437 1.05872 22.7872 1.38573 23.1143C1.71275 23.4413 2.15628 23.625 2.61875 23.625H22.3812C22.8437 23.625 23.2872 23.4413 23.6143 23.1143C23.9413 22.7872 24.125 22.3437 24.125 21.8812V2.11875C24.125 1.65628 23.9413 1.21275 23.6143 0.885733C23.2872 0.558716 22.8437 0.375 22.3812 0.375ZM7.85 20.1375H4.3625V9.675H7.85V20.1375ZM6.10625 7.64062C5.70656 7.6292 5.3191 7.50025 4.99229 7.26988C4.66547 7.0395 4.41378 6.71793 4.26868 6.34534C4.12358 5.97274 4.09149 5.56565 4.17643 5.17493C4.26137 4.7842 4.45956 4.42717 4.74626 4.14844C5.03295 3.86972 5.39542 3.68165 5.78838 3.60775C6.18134 3.53385 6.58737 3.57739 6.95573 3.73293C7.32409 3.88847 7.63845 4.14911 7.85952 4.48229C8.0806 4.81546 8.19859 5.2064 8.19875 5.60625C8.18957 6.15303 7.96432 6.67395 7.57222 7.05515C7.18013 7.43635 6.65307 7.64685 6.10625 7.64062ZM20.6375 20.1375H17.15V14.6272C17.15 12.9765 16.4525 12.3836 15.5457 12.3836C15.2799 12.4013 15.0202 12.4714 14.7815 12.5897C14.5428 12.7081 14.3298 12.8725 14.1548 13.0734C13.9798 13.2743 13.8462 13.5078 13.7617 13.7605C13.6773 14.0132 13.6435 14.2801 13.6625 14.5459C13.6567 14.6 13.6567 14.6545 13.6625 14.7086V20.1375H10.175V9.675H13.5462V11.1862C13.8863 10.6689 14.3535 10.2476 14.9031 9.96264C15.4527 9.67767 16.0663 9.5386 16.685 9.55875C18.4869 9.55875 20.591 10.5585 20.591 13.8135L20.6375 20.1375Z" fill="white"/>
</svg>
