<svg width="30" height="24" viewBox="0 0 30 24" fill="none" xmlns="http://www.w3.org/2000/svg">
<path d="M29.0536 3.17119C28.0099 3.63369 26.8886 3.94619 25.7099 4.08744C26.9124 3.36744 27.8349 2.22494 28.2699 0.864941C27.1449 1.53244 25.8986 2.01744 24.5724 2.27744C23.5099 1.14744 21.9974 0.439941 20.3224 0.439941C17.1074 0.439941 14.4999 3.04744 14.4999 6.26494C14.4999 6.71994 14.5524 7.16244 14.6499 7.58994C9.80864 7.34619 5.51989 5.02744 2.64739 1.50494C2.14739 2.36744 1.85989 3.36744 1.85989 4.43244C1.85989 6.45244 2.88864 8.23619 4.44989 9.27994C3.49489 9.24869 2.59739 8.98744 1.81239 8.55119V8.62619C1.81239 11.4474 3.81864 13.8012 6.48364 14.3362C5.99364 14.4687 5.47989 14.5387 4.94989 14.5387C4.57489 14.5387 4.20864 14.5037 3.85364 14.4362C4.59489 16.7487 6.74489 18.4337 9.29364 18.4787C7.29989 20.0412 4.78864 20.9724 2.06114 20.9724C1.59114 20.9724 1.12739 20.9449 0.671143 20.8912C3.24864 22.5449 6.30864 23.5074 9.59614 23.5074C20.3086 23.5074 26.1649 14.6349 26.1649 6.93994C26.1649 6.68994 26.1586 6.43744 26.1474 6.18744C27.2849 5.36494 28.2724 4.34119 29.0511 3.17494L29.0536 3.17119Z" fill="white"/>
</svg>
